<svg class ="svg-class" width="220" height="220" viewBox="0 0 220 220" fill="none" xmlns="http://www.w3.org/2000/svg">
<path d="M16 129H84C87.866 129 91 132.134 91 136V170.439V204C91 207.866 87.866 211 84 211H16C12.134 211 9 207.866 9 204V136C9 132.134 12.134 129 16 129Z" stroke="white" stroke-width="18"/>
<path d="M136 129H204C207.866 129 211 132.134 211 136V170.439V204C211 207.866 207.866 211 204 211H136C132.134 211 129 207.866 129 204V136C129 132.134 132.134 129 136 129Z" stroke="white" stroke-width="18"/>
<path d="M75 9H143C146.866 9 150 12.134 150 16V50.4386V84C150 87.866 146.866 91 143 91H75C71.134 91 68 87.866 68 84V16C68 12.134 71.134 9 75 9Z" stroke="white" stroke-width="18"/>
</svg>
