<svg width="220" height="221" viewBox="0 0 220 221" fill="none" xmlns="http://www.w3.org/2000/svg">
<path d="M16 129.5H84C87.866 129.5 91 132.634 91 136.5V170.938V204.5C91 208.366 87.866 211.5 84 211.5H16C12.134 211.5 9 208.366 9 204.5V136.5C9 132.634 12.134 129.5 16 129.5Z" stroke="#FC6D90" stroke-width="18"/>
<path d="M136 129.5H204C207.866 129.5 211 132.634 211 136.5V170.938V204.5C211 208.366 207.866 211.5 204 211.5H136C132.134 211.5 129 208.366 129 204.5V136.5C129 132.634 132.134 129.5 136 129.5Z" stroke="#FC6D90" stroke-width="18"/>
<path d="M75 9.49969H143C146.866 9.49969 150 12.6337 150 16.4997V50.9383V84.4997C150 88.3657 146.866 91.4997 143 91.4997H75C71.134 91.4997 68 88.3657 68 84.4997V16.4997C68 12.6337 71.134 9.49969 75 9.49969Z" stroke="#FC6D90" stroke-width="18"/>
</svg>
