<svg width="250" height="236" viewBox="0 0 250 236" fill="none" xmlns="http://www.w3.org/2000/svg">
<mask id="path-1-inside-1_1_26" fill="white">
<path fill-rule="evenodd" clip-rule="evenodd" d="M70.2299 177.997C68.1885 176.072 65.4887 175 62.6828 175H16C7.16344 175 0 167.837 0 159V77C0 68.1635 7.16344 61 16 61H64.1348C66.9739 61 69.7031 59.9023 71.7515 57.9363L126.921 4.98843C137.092 -4.77243 154 2.43567 154 16.5322V119.219V219.918C154 233.947 137.229 241.184 127.022 231.558L70.2299 177.997Z"/>
</mask>
<path d="M126.921 4.98843L114.457 -7.9983L114.457 -7.99829L126.921 4.98843ZM127.022 231.558L139.372 218.463L139.372 218.463L127.022 231.558ZM71.7515 57.9363L84.2153 70.9231L71.7515 57.9363ZM70.2299 177.997L57.88 191.093L70.2299 177.997ZM62.6828 157H16V193H62.6828V157ZM16 157C17.1046 157 18 157.895 18 159H-18C-18 177.778 -2.77768 193 16 193V157ZM18 159V77H-18V159H18ZM18 77C18 78.1046 17.1046 79 16 79V43C-2.77768 43 -18 58.2223 -18 77H18ZM16 79H64.1348V43H16V79ZM84.2153 70.9231L139.385 17.9752L114.457 -7.99829L59.2878 44.9496L84.2153 70.9231ZM139.385 17.9752C139.242 18.1124 138.824 18.3809 138.253 18.4712C137.776 18.5467 137.43 18.4634 137.216 18.372C137.001 18.2806 136.702 18.0887 136.426 17.6923C136.095 17.2175 136 16.7303 136 16.5322H172C172 -13.4229 136.07 -28.7401 114.457 -7.9983L139.385 17.9752ZM136 16.5322V119.219H172V16.5322H136ZM136 119.219V219.918H172V119.219H136ZM136 219.918C136 219.717 136.095 219.233 136.422 218.762C136.695 218.367 136.992 218.174 137.208 218.081C137.423 217.988 137.768 217.904 138.242 217.976C138.809 218.062 139.226 218.325 139.372 218.463L114.673 244.653C136.362 265.108 172 249.731 172 219.918H136ZM139.372 218.463L82.5797 164.902L57.88 191.093L114.673 244.653L139.372 218.463ZM64.1348 79C71.6198 79 78.815 76.1059 84.2153 70.9231L59.2878 44.9496C60.5913 43.6986 62.3281 43 64.1348 43V79ZM62.6828 193C60.8972 193 59.1791 192.318 57.88 191.093L82.5797 164.902C77.198 159.827 70.0802 157 62.6828 157V193Z" fill="white" mask="url(#path-1-inside-1_1_26)"/>
<path d="M240.569 97.7157L184 154.284" stroke="white" stroke-width="18" stroke-linecap="round"/>
<path d="M184 97.7157L240.569 154.284" stroke="white" stroke-width="18" stroke-linecap="round"/>
</svg>
