<svg width="227" height="236" viewBox="0 0 227 236" fill="none" xmlns="http://www.w3.org/2000/svg">
<mask id="path-1-inside-1_6_6" fill="white">
<path fill-rule="evenodd" clip-rule="evenodd" d="M70.2299 177.497C68.1885 175.572 65.4887 174.5 62.6828 174.5H16C7.16344 174.5 0 167.336 0 158.5V76.4997C0 67.6632 7.16344 60.4997 16 60.4997H64.1348C66.9739 60.4997 69.7031 59.402 71.7515 57.436L126.921 4.48812C137.092 -5.27274 154 1.93537 154 16.0319V118.719V219.417C154 233.447 137.229 240.683 127.022 231.057L70.2299 177.497Z"/>
</mask>
<path d="M126.921 4.48812L114.457 -8.4986L114.457 -8.4986L126.921 4.48812ZM127.022 231.057L139.372 217.962L139.372 217.962L127.022 231.057ZM71.7515 57.436L84.2153 70.4228L71.7515 57.436ZM70.2299 177.497L57.88 190.592L70.2299 177.497ZM62.6828 156.5H16V192.5H62.6828V156.5ZM16 156.5C17.1046 156.5 18 157.395 18 158.5H-18C-18 177.277 -2.77768 192.5 16 192.5V156.5ZM18 158.5V76.4997H-18V158.5H18ZM18 76.4997C18 77.6043 17.1046 78.4997 16 78.4997V42.4997C-2.77768 42.4997 -18 57.722 -18 76.4997H18ZM16 78.4997H64.1348V42.4997H16V78.4997ZM84.2153 70.4228L139.385 17.4748L114.457 -8.4986L59.2878 44.4493L84.2153 70.4228ZM139.385 17.4748C139.242 17.6121 138.824 17.8806 138.253 17.9709C137.776 18.0463 137.43 17.9631 137.216 17.8717C137.001 17.7803 136.702 17.5884 136.426 17.192C136.095 16.7172 136 16.23 136 16.0319H172C172 -13.9232 136.07 -29.2404 114.457 -8.4986L139.385 17.4748ZM136 16.0319V118.719H172V16.0319H136ZM136 118.719V219.417H172V118.719H136ZM136 219.417C136 219.217 136.095 218.733 136.422 218.261C136.695 217.867 136.992 217.674 137.208 217.581C137.423 217.488 137.768 217.404 138.242 217.476C138.809 217.562 139.226 217.825 139.372 217.962L114.673 244.153C136.362 264.607 172 249.231 172 219.417H136ZM139.372 217.962L82.5797 164.402L57.88 190.592L114.673 244.153L139.372 217.962ZM64.1348 78.4997C71.6198 78.4997 78.815 75.6056 84.2153 70.4228L59.2878 44.4493C60.5913 43.1983 62.3281 42.4997 64.1348 42.4997V78.4997ZM62.6828 192.5C60.8972 192.5 59.1791 191.817 57.88 190.592L82.5797 164.402C77.198 159.327 70.0802 156.5 62.6828 156.5V192.5Z" fill="#FC6D90" mask="url(#path-1-inside-1_6_6)"/>
<path d="M196 74.4997L196.931 75.836C214.925 101.666 214.551 136.067 196 161.5V161.5" stroke="#FC6D90" stroke-width="18" stroke-linecap="round"/>
</svg>
