<svg width="250" height="236" viewBox="0 0 250 236" fill="none" xmlns="http://www.w3.org/2000/svg">
<mask id="path-1-inside-1_6_15" fill="white">
<path fill-rule="evenodd" clip-rule="evenodd" d="M70.2299 177.997C68.1885 176.072 65.4887 174.999 62.6828 174.999H16C7.16344 174.999 0 167.836 0 158.999V76.9994C0 68.1628 7.16344 60.9994 16 60.9994H64.1348C66.9739 60.9994 69.7031 59.9016 71.7515 57.9357L126.921 4.98782C137.092 -4.77304 154 2.43506 154 16.5316V119.219V219.917C154 233.947 137.229 241.183 127.022 231.557L70.2299 177.997Z"/>
</mask>
<path d="M126.921 4.98782L114.457 -7.99891L114.457 -7.9989L126.921 4.98782ZM127.022 231.557L139.372 218.462L139.372 218.462L127.022 231.557ZM71.7515 57.9357L84.2153 70.9225L71.7515 57.9357ZM70.2299 177.997L57.88 191.092L70.2299 177.997ZM62.6828 156.999H16V192.999H62.6828V156.999ZM16 156.999C17.1046 156.999 18 157.895 18 158.999H-18C-18 177.777 -2.77768 192.999 16 192.999V156.999ZM18 158.999V76.9994H-18V158.999H18ZM18 76.9994C18 78.104 17.1046 78.9994 16 78.9994V42.9994C-2.77768 42.9994 -18 58.2217 -18 76.9994H18ZM16 78.9994H64.1348V42.9994H16V78.9994ZM84.2153 70.9225L139.385 17.9745L114.457 -7.9989L59.2878 44.949L84.2153 70.9225ZM139.385 17.9745C139.242 18.1117 138.824 18.3803 138.253 18.4706C137.776 18.546 137.43 18.4628 137.216 18.3714C137.001 18.28 136.702 18.0881 136.426 17.6917C136.095 17.2169 136 16.7297 136 16.5316H172C172 -13.4235 136.07 -28.7408 114.457 -7.99891L139.385 17.9745ZM136 16.5316V119.219H172V16.5316H136ZM136 119.219V219.917H172V119.219H136ZM136 219.917C136 219.716 136.095 219.233 136.422 218.761C136.695 218.367 136.992 218.174 137.208 218.081C137.423 217.988 137.768 217.904 138.242 217.976C138.809 218.062 139.226 218.324 139.372 218.462L114.673 244.652C136.362 265.107 172 249.73 172 219.917H136ZM139.372 218.462L82.5797 164.902L57.88 191.092L114.673 244.652L139.372 218.462ZM64.1348 78.9994C71.6198 78.9994 78.815 76.1053 84.2153 70.9225L59.2878 44.949C60.5913 43.698 62.3281 42.9994 64.1348 42.9994V78.9994ZM62.6828 192.999C60.8972 192.999 59.1791 192.317 57.88 191.092L82.5797 164.902C77.198 159.826 70.0802 156.999 62.6828 156.999V192.999Z" fill="#FC6D90" mask="url(#path-1-inside-1_6_15)"/>
<path d="M240.569 97.7151L184 154.284" stroke="#FC6D90" stroke-width="18" stroke-linecap="round"/>
<path d="M184 97.7151L240.569 154.284" stroke="#FC6D90" stroke-width="18" stroke-linecap="round"/>
</svg>
